<svg xmlns="http://www.w3.org/2000/svg" viewBox="0 0 512.001 512.001" x="0px" y="0px" id="svg-sleek"><g><g><path d="M502.002,10.249H10c-5.523,0-10,4.478-10,10v102.859c0,5.522,4.477,10,10,10h492.002c5.523,0,10-4.478,10-10V20.249    C512.002,14.727,507.525,10.249,502.002,10.249z M492.002,113.108H20V30.249h472.002V113.108z"></path>
</g>
</g><g><g><path d="M469.41,90.394l-8.167-8.167c2.229-4.408,3.416-9.306,3.416-14.388c0-8.533-3.323-16.557-9.357-22.591    c-12.456-12.455-32.723-12.456-45.18,0c-6.034,6.034-9.357,14.058-9.357,22.591c0,8.533,3.324,16.557,9.357,22.59    c6.035,6.034,14.058,9.357,22.591,9.357c5.083,0,9.98-1.188,14.388-3.416l8.167,8.167c1.953,1.952,4.512,2.929,7.071,2.929    s5.119-0.977,7.071-2.929C473.315,100.632,473.315,94.3,469.41,90.394z M441.161,76.286c-2.256,2.257-5.256,3.5-8.448,3.5    c-3.192,0-6.191-1.243-8.448-3.5c-2.256-2.257-3.5-5.256-3.5-8.447s1.244-6.192,3.5-8.448c2.329-2.329,5.389-3.493,8.448-3.493    c3.059,0,6.119,1.164,8.448,3.493c2.256,2.257,3.5,5.257,3.5,8.448S443.418,74.03,441.161,76.286z"></path>
</g>
</g><g><g><path d="M358.341,87.831c-0.13-0.641-0.32-1.271-0.57-1.87c-0.25-0.601-0.56-1.19-0.92-1.73c-0.36-0.54-0.78-1.06-1.24-1.52    c-0.46-0.46-0.97-0.88-1.52-1.24c-0.54-0.36-1.12-0.67-1.73-0.92c-0.6-0.25-1.23-0.44-1.87-0.57c-1.29-0.26-2.62-0.26-3.91,0    c-0.64,0.13-1.27,0.32-1.87,0.57c-0.6,0.25-1.18,0.56-1.72,0.92c-0.55,0.36-1.06,0.78-1.53,1.24c-0.46,0.46-0.87,0.979-1.24,1.52    c-0.36,0.54-0.67,1.13-0.92,1.73c-0.25,0.6-0.44,1.229-0.57,1.87c-0.13,0.649-0.19,1.3-0.19,1.96c0,0.649,0.06,1.3,0.19,1.95    c0.13,0.64,0.32,1.27,0.57,1.869c0.25,0.601,0.56,1.181,0.92,1.73c0.37,0.54,0.78,1.06,1.24,1.52c0.47,0.46,0.98,0.881,1.53,1.24    c0.54,0.36,1.12,0.67,1.72,0.92c0.61,0.25,1.24,0.44,1.87,0.57c0.65,0.13,1.31,0.19,1.96,0.19c0.65,0,1.31-0.061,1.95-0.19    c0.64-0.129,1.27-0.32,1.87-0.57c0.6-0.25,1.19-0.56,1.73-0.92c0.55-0.359,1.06-0.78,1.52-1.24c1.86-1.869,2.93-4.439,2.93-7.069    C358.541,89.131,358.471,88.48,358.341,87.831z"></path>
</g>
</g><g><g><path d="M310.627,79.786H102.794c-5.523,0-10,4.478-10,10c0,5.522,4.477,10,10,10h207.833c5.523,0,10-4.478,10-10    C320.627,84.264,316.15,79.786,310.627,79.786z"></path>
</g>
</g><g><g><path d="M314.821,147.364H11.181c-5.523,0-10,4.478-10,10v197.199c0,5.523,4.477,10,10,10h303.64c5.523,0,10-4.478,10-10V157.364    C324.821,151.842,320.344,147.364,314.821,147.364z M121.806,344.562H36.925l57.165-66.186l41.4,47.94L121.806,344.562z     M146.806,344.562l18.646-24.861h48.489c5.523,0,10-4.478,10-10c0-5.522-4.477-10-10-10h-33.488l7.016-9.354h62.789l40.665,54.215    H146.806z M202.468,270.347l16.395-21.859l16.395,21.859H202.468z M304.821,329.76l-77.958-103.94c-1.889-2.518-4.853-4-8-4    c-3.147,0-6.111,1.482-8,4l-63.09,84.119l-46.114-53.4c-1.899-2.199-4.662-3.464-7.568-3.464s-5.668,1.265-7.568,3.464    l-65.342,75.653V167.364h283.64V329.76z"></path>
</g>
</g><g><g><path d="M137.648,178.846c-19.494,0-35.353,15.859-35.353,35.353c0,19.494,15.86,35.353,35.353,35.353    c19.494,0,35.353-15.859,35.353-35.353C173.001,194.705,157.142,178.846,137.648,178.846z M137.648,229.553    c-8.466,0-15.353-6.887-15.353-15.353s6.888-15.353,15.353-15.353c8.465,0,15.353,6.887,15.353,15.353    S146.114,229.553,137.648,229.553z"></path>
</g>
</g><g><g><path d="M502.002,147.364h-153.69c-5.523,0-10,4.478-10,10v197.199c0,5.522,4.477,10,10,10h153.69c5.523,0,10-4.478,10-10V157.364    C512.002,151.842,507.525,147.364,502.002,147.364z M492.002,344.563h-133.69V167.364h133.69V344.563z"></path>
</g>
</g><g><g><path d="M468.719,183.835h-87.124c-5.523,0-10,4.478-10,10c0,5.522,4.477,10,10,10h87.124c5.523,0,10-4.478,10-10    C478.719,188.313,474.242,183.835,468.719,183.835z"></path>
</g>
</g><g><g><path d="M468.719,223.969h-87.124c-5.523,0-10,4.478-10,10c0,5.522,4.477,10,10,10h87.124c5.523,0,10-4.478,10-10    C478.719,228.447,474.242,223.969,468.719,223.969z"></path>
</g>
</g><g><g><path d="M468.719,264.103h-87.124c-5.523,0-10,4.478-10,10c0,5.522,4.477,10,10,10h87.124c5.523,0,10-4.478,10-10    C478.719,268.581,474.242,264.103,468.719,264.103z"></path>
</g>
</g><g><g><path d="M391.401,312.281c-0.13-0.641-0.32-1.271-0.57-1.87c-0.25-0.601-0.56-1.181-0.92-1.73c-0.37-0.54-0.78-1.06-1.25-1.52    c-2.32-2.32-5.77-3.391-9.02-2.73c-0.64,0.13-1.27,0.32-1.87,0.57c-0.6,0.25-1.18,0.56-1.73,0.92c-0.54,0.36-1.06,0.78-1.52,1.24    c-0.46,0.46-0.88,0.979-1.24,1.52c-0.36,0.55-0.67,1.13-0.92,1.73c-0.25,0.6-0.44,1.229-0.57,1.87c-0.13,0.649-0.2,1.3-0.2,1.949    c0,0.66,0.07,1.311,0.2,1.96c0.13,0.641,0.32,1.271,0.57,1.871c0.25,0.601,0.56,1.181,0.92,1.73c0.36,0.54,0.78,1.06,1.24,1.52    c0.46,0.46,0.98,0.88,1.52,1.24c0.55,0.36,1.13,0.67,1.73,0.92c0.6,0.25,1.23,0.44,1.87,0.57c0.65,0.13,1.3,0.2,1.96,0.2    c2.63,0,5.2-1.07,7.06-2.931c0.46-0.46,0.88-0.979,1.25-1.52c0.36-0.55,0.67-1.13,0.92-1.73c0.25-0.6,0.44-1.229,0.57-1.87    c0.13-0.649,0.19-1.3,0.19-1.96C391.591,313.581,391.531,312.93,391.401,312.281z"></path>
</g>
</g><g><g><path d="M468.719,304.236h-49.214c-5.523,0-10,4.478-10,10c0,5.522,4.477,10,10,10h49.214c5.523,0,10-4.478,10-10    C478.719,308.714,474.242,304.236,468.719,304.236z"></path>
</g>
</g><g><g><path d="M164.871,378.751H11.181c-5.523,0-10,4.478-10,10v103.002c0,5.522,4.477,10,10,10h153.69c5.523,0,10-4.478,10-10V388.751    C174.871,383.229,170.394,378.751,164.871,378.751z M154.871,481.753H21.181v-83.002h133.69V481.753z"></path>
</g>
</g><g><g><path d="M502.002,378.751H199.728c-5.523,0-10,4.478-10,10v103.002c0,5.522,4.477,10,10,10h302.274c5.523,0,10-4.478,10-10    V388.751C512.002,383.229,507.525,378.751,502.002,378.751z M492.002,481.753H209.728v-83.002h282.274V481.753z"></path>
</g>
</g><g><g><path d="M255.281,438.302c-0.13-0.639-0.32-1.27-0.57-1.87c-0.25-0.61-0.56-1.189-0.92-1.729c-0.36-0.551-0.78-1.061-1.24-1.521    c-0.46-0.46-0.97-0.88-1.52-1.24c-0.54-0.359-1.12-0.67-1.73-0.92c-0.6-0.25-1.23-0.45-1.87-0.58c-1.29-0.25-2.62-0.25-3.91,0    c-0.63,0.13-1.26,0.33-1.87,0.58c-0.6,0.25-1.18,0.561-1.72,0.92c-0.55,0.36-1.06,0.78-1.52,1.24c-0.46,0.46-0.88,0.97-1.25,1.521    c-0.36,0.54-0.67,1.119-0.92,1.729c-0.25,0.601-0.44,1.23-0.57,1.87c-0.13,0.64-0.19,1.3-0.19,1.95c0,0.649,0.06,1.31,0.19,1.95    c0.13,0.639,0.32,1.269,0.57,1.879c0.25,0.6,0.56,1.18,0.92,1.72c0.37,0.55,0.79,1.06,1.25,1.52c1.86,1.86,4.44,2.931,7.07,2.931    c0.65,0,1.31-0.061,1.95-0.19c0.64-0.13,1.27-0.33,1.87-0.58c0.61-0.25,1.19-0.55,1.73-0.92c0.55-0.359,1.06-0.779,1.52-1.24    c0.46-0.46,0.88-0.97,1.24-1.52c0.36-0.54,0.67-1.12,0.92-1.72c0.25-0.61,0.44-1.24,0.57-1.88c0.13-0.641,0.2-1.301,0.2-1.95    C255.481,439.602,255.411,438.941,255.281,438.302z"></path>
</g>
</g><g><g><path d="M451.319,430.252h-167.93c-5.523,0-10,4.478-10,10c0,5.522,4.477,10,10,10h167.93c5.523,0,10-4.478,10-10    C461.319,434.73,456.842,430.252,451.319,430.252z"></path>
</g>
</g></svg>