<svg xmlns="http://www.w3.org/2000/svg" viewBox="0 0 512.001 512.001" x="0px" y="0px" id="svg-undetected"><g><g><g><path d="M427.472,154.975c0.175-2.829,0.258-5.779,0.258-8.896C427.71,74.475,375.462,13.59,304.691,2.701     s-138.906,31.472-160.452,99.758c-18.767-10.985-42.224-9.984-59.986,2.561c-17.762,12.545-26.55,34.317-22.472,55.677     c-42.42,16.006-67.331,60.049-59.192,104.652c8.14,44.602,47.003,77.008,92.342,76.998h8.533v47.667l-31.633,31.634     c-1.6,1.6-2.5,3.77-2.5,6.033v35.706c-11.755,4.156-18.806,16.176-16.698,28.465s12.763,21.271,25.231,21.271     s23.123-8.982,25.231-21.271c2.108-12.289-4.943-24.309-16.698-28.465v-32.172l31.633-31.633c1.6-1.6,2.5-3.77,2.5-6.034v-51.2     h25.6v51.2c0,4.713,3.821,8.533,8.533,8.533c4.713,0,8.533-3.821,8.533-8.533v-51.2h25.6v34.133c0.001,2.263,0.9,4.433,2.5,6.033     l31.633,31.634v49.239c-11.755,4.156-18.806,16.176-16.698,28.465s12.763,21.271,25.231,21.271s23.123-8.982,25.231-21.271     s-4.943-24.309-16.698-28.465v-52.772c-0.001-2.263-0.9-4.433-2.5-6.033l-31.633-31.634v-30.6h56.2l29.133,29.133v23.639     c-10.22,3.564-17.067,13.203-17.067,24.027c0,10.824,6.847,20.463,17.067,24.027v20.212     c-11.755,4.156-18.806,16.176-16.698,28.465s12.763,21.271,25.231,21.271s23.123-8.982,25.231-21.271     s-4.943-24.309-16.698-28.465v-20.211c10.22-3.565,17.067-13.204,17.067-24.028s-6.847-20.463-17.067-24.028v-27.172     c-0.001-2.263-0.9-4.433-2.5-6.033l-19.566-19.567h64.733v76.8c0,4.713,3.82,8.533,8.533,8.533s8.533-3.82,8.533-8.533v-76.8     h25.6v42.667c0.001,2.263,0.9,4.433,2.5,6.033l31.633,31.634v40.706c-11.755,4.156-18.806,16.176-16.698,28.465     s12.763,21.271,25.231,21.271s23.123-8.982,25.231-21.271c2.108-12.289-4.943-24.309-16.698-28.465v-44.239     c-0.001-2.263-0.9-4.433-2.5-6.033l-31.633-31.634v-39.133h8.533c50.231-0.001,91.559-39.545,93.776-89.727     C515.189,202.437,477.508,159.404,427.472,154.975z M77.864,495.946c-4.713,0-8.533-3.82-8.533-8.533s3.82-8.533,8.533-8.533     s8.533,3.82,8.533,8.533C86.393,492.123,82.575,495.941,77.864,495.946z M231.464,478.879c4.713,0,8.533,3.82,8.533,8.533     s-3.82,8.533-8.533,8.533s-8.533-3.82-8.533-8.533C222.935,482.702,226.753,478.884,231.464,478.879z M299.731,495.946     c-4.713,0-8.533-3.82-8.533-8.533s3.82-8.533,8.533-8.533s8.533,3.82,8.533,8.533     C308.259,492.123,304.442,495.941,299.731,495.946z M299.731,410.613c4.713,0,8.533,3.82,8.533,8.533s-3.82,8.533-8.533,8.533     s-8.533-3.82-8.533-8.533C291.202,414.435,295.02,410.617,299.731,410.613z M436.264,478.879c4.713,0,8.533,3.82,8.533,8.533     s-3.82,8.533-8.533,8.533s-8.533-3.82-8.533-8.533C427.735,482.702,431.553,478.884,436.264,478.879z M473.497,302.775     L473.497,302.775c-14.369,14.451-33.921,22.554-54.3,22.504H94.931c-38.419,0.041-70.951-28.328-76.138-66.395     c-5.187-38.067,18.567-74.106,55.596-84.346c2.301-0.625,4.235-2.185,5.334-4.301c1.099-2.116,1.262-4.595,0.45-6.837     c-6.129-16.865,0.255-35.726,15.368-45.402c15.113-9.675,34.914-7.578,47.666,5.047c2.215,2.188,5.445,2.997,8.43,2.111     c2.985-0.886,5.25-3.327,5.912-6.369c13.955-63.879,73.8-106.98,138.808-99.97s114.291,61.876,114.308,127.261     c0.024,5.093-0.285,10.181-0.925,15.233l-0.033,0.767l-0.017,0.121c-2.553,20.034-9.809,39.18-21.175,55.875     c-2.653,3.894-1.648,9.201,2.246,11.854c3.894,2.653,9.201,1.648,11.854-2.246c11.415-16.788,19.188-35.78,22.817-55.754     c29.832,2.426,55.536,21.964,65.857,50.059S494.665,281.614,473.497,302.775z"></path><path d="M248.531,239.946h17.067c9.421-0.011,17.056-7.646,17.067-17.067v-17.067c-0.011-9.421-7.646-17.056-17.067-17.067     h-17.067c-9.421,0.011-17.056,7.646-17.067,17.067v17.067C231.475,232.3,239.11,239.935,248.531,239.946z M248.531,205.813     h17.067l0.009,17.067h-17.075V205.813z"></path><path d="M333.864,171.679c4.713,0,8.533-3.82,8.533-8.533s-3.821-8.533-8.533-8.533h-17.067v-17.067     c0-4.713-3.82-8.533-8.533-8.533s-8.533,3.82-8.533,8.533v17.067h-17.067v-17.067c0-4.713-3.821-8.533-8.533-8.533     c-4.713,0-8.533,3.82-8.533,8.533v17.067h-17.067v-17.067c0-4.713-3.82-8.533-8.533-8.533s-8.533,3.82-8.533,8.533v17.067     h-17.067v-17.067c0-4.713-3.821-8.533-8.533-8.533s-8.533,3.82-8.533,8.533v17.067h-17.067c-4.713,0-8.533,3.82-8.533,8.533     s3.82,8.533,8.533,8.533h17.067v17.067h-17.067c-4.713,0-8.533,3.82-8.533,8.533s3.82,8.533,8.533,8.533h17.067v17.067h-17.067     c-4.713,0-8.533,3.82-8.533,8.533s3.82,8.533,8.533,8.533h17.067v17.067h-17.067c-4.713,0-8.533,3.82-8.533,8.533     s3.82,8.533,8.533,8.533h17.067v17.067c0,4.713,3.82,8.533,8.533,8.533s8.533-3.82,8.533-8.533v-17.067h17.067v17.067     c0,4.713,3.82,8.533,8.533,8.533s8.533-3.82,8.533-8.533v-17.067h17.067v17.067c0,4.713,3.821,8.533,8.533,8.533     c4.713,0,8.533-3.82,8.533-8.533v-17.067h17.067v17.067c0,4.713,3.82,8.533,8.533,8.533s8.533-3.82,8.533-8.533v-17.067h17.067     c4.713,0,8.533-3.82,8.533-8.533s-3.821-8.533-8.533-8.533h-17.067v-17.067h17.067c4.713,0,8.533-3.82,8.533-8.533     s-3.821-8.533-8.533-8.533h-17.067v-17.067h17.067c4.713,0,8.533-3.82,8.533-8.533s-3.821-8.533-8.533-8.533h-17.067v-17.067     H333.864z M299.731,257.013h-85.333v-85.333h85.333V257.013z"></path><path d="M154.664,419.146c-4.713,0-8.533,3.82-8.533,8.533v34.133c0,4.713,3.821,8.533,8.533,8.533     c4.713,0,8.533-3.82,8.533-8.533v-34.133C163.197,422.966,159.377,419.146,154.664,419.146z"></path><path d="M359.464,444.746c-4.713,0-8.533,3.821-8.533,8.533v8.533c0,4.713,3.82,8.533,8.533,8.533s8.533-3.82,8.533-8.533v-8.533     C367.997,448.566,364.177,444.746,359.464,444.746z"></path>
</g>
</g>
</g></svg>